<?xml version="1.0" encoding="UTF-8" standalone="no"?>
<?xml-stylesheet type="text/css" href="styles.css" ?>

<svg
	xmlns:svg="http://www.w3.org/2000/svg"
	xmlns="http://www.w3.org/2000/svg"
	xmlns:xlink="http://www.w3.org/1999/xlink"
	width="100%"
	height="100%"
	viewBox="-5 -5 10 10">

	<!-- Bereich für Definitionen: Style-Vorschrifen, Symbole, etc. -->
	<defs>
		<pattern id="CutSurface" x="0" y="0" width="0.5" height="0.5" patternUnits="userSpaceOnUse" patternTransform="rotate(315)">
			<path d="M0,0.25 h 10" class="VL_s"/>
    	</pattern>	

      <marker id="arrowRight" markerWidth="14" markerHeight="14" refX="2" refY="4" orient="auto">
        <path d="M2,2 v4 l8,-2z "/>
      </marker>
 
      <marker id="arrowLeft" markerWidth="14" markerHeight="14" refX="10" refY="4" orient="auto">
        <path d="M10,2 v4 l-8,-2z "/>
      </marker>
 
      <marker id="diameter" markerWidth="14" markerHeight="14" refX="7" refY="0" orient="auto">
        <text x="0" y="5">&#x2300;</text>
      </marker>
 
		<style type="text/css">
		<![CDATA[
			
			svg > g {
				display:none;
			}
			
			svg > g:target {
				display:inline;
			}
			
			path {
				fill: none;
				stroke:#000000;
				stroke-linecap:butt;
				stroke-linejoin:miter;
				stroke-miterlimit:4;
				stroke-opacity:1;
			}
			
			marker > path {
				fill: #000000;
			}
			
			/** Volllinie breit **/
			.VL_b {
				stroke-width:0.07;
				stroke-dasharray:none;
			}
			
			/** Strichlinie breit **/
			.SL_b {
				stroke-width:0.035;
				stroke-dasharray:0.56, 0.14;
				stroke-dashoffset:0;
			}
			
			/** Strichpunktlinie breit **/
			.SPL_b {
				stroke-width:0.035;
				stroke-dasharray:0.56, 0.14, 0.07, 0.14;
				stroke-dashoffset:0;
			}
			
			/** Volllinie schmal **/
			.VL_s {
				stroke-width:0.035;
				stroke-dasharray:none;
			}
			
			/** Strichlinie schmal **/
			.SL_s {
				stroke-width:0.035;
				stroke-dasharray:0.28, 0.07;
				stroke-dashoffset:0;
			}
			
			/** Strichpunktlinie schmal **/
			.SPL_s {
				stroke-width:0.035;
				stroke-dasharray:0.42, 0.07, 0.035, 0.07;
				stroke-dashoffset:0;
			}
			
			/** Strich-Zweipunktlinie schmal **/
			.SZPL_s {
				stroke-width:0.035;
				stroke-dasharray:0.28, 0.07, 0.035, 0.07, 0.035, 0.07;
				stroke-dashoffset:0;
			}
			
			/** Schnittflaeche **/
			.CSF path{
				fill: url(#CutSurface);
			}
			
		]]>
		</style>
	</defs>

	<!-- Vorderansicht (1. Hauptansicht) -->
	<g id="V">
		<!-- Sichtbare Kanten -->
		<g class="VL_b">
			<path d="M -3.0,4.0 H 3.0 V -4.0 H -1.5 V 0.0 H -3.0 Z"/>
		</g>
		<!-- Sichtbare Schnittflaechen -->
		<g class="VL_b CSF">
			<path d="M -3.0,4.0 H -2.0 V 0.0 H -3.0 Z"/>
			<path d="M 2.0,4.0 H 3.0 V -4.0 H 2.0 Z"/>
		</g>
		<!-- Verdeckte Kanten -->
		<g class="SL_s">
		</g>
		<!-- Symmetrielinien -->
		<g class="SPL_s">
			<path d="M 0.0,-4.5 V 4.5"/>
		</g>
		<!-- Maßlinien -->
		<!--g class="VL_s">
			<path d="M -2.5,2.0 H 0.0 2.5" style="marker-start:url(#arrowLeft);marker-end:url(#arrowRight);marker-mid:url(#diameter);"/>
		</g-->
	</g>

	<!-- Seitenansicht von links (2. Hauptansicht) -->
	<g id="L">
		<!-- Sichtbare Kanten -->
		<g class="VL_b">
			<path d="M -3.0,4.0 H 3.0 V -4.0 H -3.0 Z"/>
			<path d="M -2.598,-4.0 V 0.0 H 2.598 V -4.0"/>
			<path d="M -1.323,-4.0 V 0.0"/>
			<path d="M 1.323,-4.0 V 0.0"/>
		</g>
		<!-- Verdeckte Kanten -->
		<g class="SL_s">
			<path d="M -2.0,-4.0 V 4.0"/>
			<path d="M 2.0,-4.0 V 4.0"/>
		</g>
		<!-- Symmetrielinien -->
		<g class="SPL_s">
			<path d="M 0.0,-4.5 V 4.5"/>
		</g>
	</g>

	<!-- Draufsicht (3. Hauptansicht) -->
	<g id="D">
		<!-- Sichtbare Kanten -->
		<g class="VL_b">
			<path d="M -3.0,0.0 A 3.0,3.0 0 1 0 3.0,0.0 A 3.0,3.0 0 1 0 -3.0,0.0 Z"/>
			<path d="M -2.0,0.0 A 2.0,2.0 0 1 0 2.0,0.0 A 2.0,2.0 0 1 0 -2.0,0.0 Z"/>
			<path d="M -1.5,-2.598 V -1.323"/>
			<path d="M -1.5,1.323 V 2.598"/>
		</g>
		<!-- Verdeckte Kanten -->
		<g class="SL_s">
		</g>
		<!-- Symmetrielinien -->
		<g class="SPL_s">
			<path d="M -3.5,0.0 H 3.5"/>
			<path d="M 0.0,-3.5 V 3.5"/>
		</g>
	</g>
</svg>
